<?xml version="1.0" encoding="utf-8"?>
<!-- Designed by Vexels.com - 2020 All Rights Reserved - https://vexels.com/terms-and-conditions/  -->
<svg version="1.1" id="Capa_1" xmlns="http://www.w3.org/2000/svg" xmlns:xlink="http://www.w3.org/1999/xlink" x="0px" y="0px"
	 viewBox="0 0 1200 1200" enable-background="new 0 0 1200 1200" xml:space="preserve">
<g>
	<path fill="#39C6BC" d="M746.672,1131.425c-31.447,17.122-64.756,22.56-99.943,15.678c-15.157-2.965-28.178-9.885-38.452-21.671
		c-2.238-2.568-4.958-4.716-7.781-7.364c-7.276,6.002-14.053,11.592-20.831,17.182c-6.085,2.189-12.25,4.181-18.239,6.608
		c-15.345,6.219-30.173,4.981-44.752-2.455c-23.321-11.894-43.636-28.175-64.445-43.767c-23.017-17.246-42.416-37.899-59.621-60.87
		c-19.54-26.088-36.656-53.742-52.464-82.111c-19.295-34.627-35.18-70.89-40.898-110.547c-2.991-20.746-4.777-41.726-5.929-62.665
		c-2.895-52.644,5.471-103.639,24.021-153c6.886-18.322,14.899-36.016,26.22-52.105c2.861-4.066,5.082-8.581,7.598-12.89
		c16.549-15.944,35.873-26.781,58.259-32.317c23.308-5.764,46.55-10.709,70.867-10.911c31.631-0.263,60.004,8.855,86.582,25.09
		c4.257,2.6,8.561,5.124,12.836,7.674c4.093,4.346,8.36,8.558,12.252,13.092c5.816,6.774,12.686,7.481,20.241,3.803
		c5.838-2.843,11.551-5.979,17.14-9.288c22.214-13.153,46.133-21.621,71.459-26.255c12.363-2.262,24.781-2.934,37.351-1.723
		c29.815,2.873,57.926,11.181,83.792,26.338c23.865,13.984,42.426,32.848,54.232,58.39c30.404,65.781,38.457,135.133,34.257,206.573
		c-0.234,3.987-0.766,7.972-1.405,11.918c-6.085,37.606-15.903,74.291-27.285,110.596c-4.816,15.359-11.757,29.661-20.005,43.471
		c-27.59,46.195-59.77,88.735-98.762,125.992C757.208,1119.394,752.088,1125.564,746.672,1131.425z M823.541,608.997
		c-1.522-1.761-3.409-3.323-4.5-5.319c-4.072-7.447-7.609-15.195-11.869-22.527c-4.289-7.382-9.647-14.027-16.889-18.82
		c-2.871-1.9-5.874-4.114-9.58-1.603c-2.477,1.678-2.25,4.562,0.853,9.248c1.102,1.664,2.254,3.316,3.553,4.827
		c7.995,9.294,12.889,20.14,16.109,31.841c6.092,22.135,12.183,44.271,18.292,66.401c0.661,2.393,1.297,4.812,2.243,7.095
		c0.298,0.719,1.715,1.582,2.373,1.414c1.244-0.319,2.623-1.107,3.366-2.124c0.832-1.139,1.435-2.75,1.425-4.151
		c-0.102-14.934,2.814-29.934-0.879-44.793c-0.616-2.479-0.976-4.9,1.33-6.804c0.998,0.983,2.539,1.794,2.912,2.975
		c5.24,16.571,10.319,33.192,15.442,49.8c0.706,2.287,0.755,5.045,4.831,5.811c0.892-3.045,2.467-6.128,2.592-9.268
		c0.394-9.935,1.01-19.959,0.132-29.823c-1.422-15.964-5.488-31.445-13.773-45.339c-2.978-4.994-7.469-9.155-11.651-13.313
		c-1.082-1.076-4.376-1.597-5.295-0.802c-1.602,1.386-3.228,4.164-2.926,6.052c0.779,4.866,2.646,9.554,3.999,14.335
		C826.23,606.226,825.589,607.946,823.541,608.997z M391.518,600.34c-6.188-3.272-11.503-1.492-15.67,2.165
		c-4.809,4.22-9.708,8.945-12.733,14.457c-5.496,10.013-10.537,20.469-14.163,31.278c-8.945,26.663-13.346,54.265-14.36,82.37
		c-1.067,29.561,1.121,58.923,6.579,87.974c2.487,13.234,5.761,26.35,9.353,39.333c1.568,5.67,4.516,11.05,7.443,16.22
		c1.681,2.969,4.734,6.119,8.497,4.385c2.242-1.033,4.545-4.25,4.849-6.727c0.843-6.872,1.289-13.919,0.74-20.806
		c-1.149-14.429-3.389-28.771-4.549-43.199c-2.357-29.347-6.061-58.6-5.114-88.173c1.15-35.898,7.15-70.491,24.771-102.361
		C389.803,612.475,392.356,607.552,391.518,600.34z M669.309,1106.714c7.819,2.993,15.389,0.251,22.687-2.904
		c7.787-3.367,15.393-7.194,22.897-11.161c14.171-7.492,27.666-15.997,39.499-26.971c22.52-20.885,41.424-44.656,57.05-71.052
		c2.284-3.858,4.392-7.866,6.105-12.003c1.32-3.188,2.214-6.64,2.713-10.06c0.591-4.045,0.282-8.163-3.854-10.533
		c-3.637-2.084-7.147-0.327-9.656,1.879c-4.451,3.914-8.977,8.081-12.207,12.977c-7.696,11.665-14.849,23.704-21.862,35.8
		c-8.311,14.333-17.596,27.843-29.583,39.421c-14.508,14.011-31.244,24.843-48.702,34.664c-7.399,4.163-15.009,7.95-22.438,12.063
		C669.152,1100.387,667.251,1102.639,669.309,1106.714z M763.975,723.909c-1.074,1.778-2.952,3.657-3.346,5.808
		c-0.715,3.898-0.468,7.964-0.762,11.949c-1.431,19.436-2.253,38.945-4.528,58.283c-3.095,26.304-7.48,52.455-10.955,78.718
		c-1.176,8.888-1.392,17.916-1.722,26.892c-0.048,1.311,1.721,2.688,3.224,4.868c5.412-7.971,6.372-16.034,8.179-23.622
		c9.991-41.976,15.216-84.605,16.392-127.721c0.245-8.988-0.001-18.002-0.377-26.989
		C769.934,728.663,769.215,724.984,763.975,723.909z M427.586,922.652c1.085-0.369,2.171-0.738,3.256-1.107
		c0-2.337,0.353-4.739-0.066-6.998c-1.275-6.882-2.843-13.71-4.306-20.557c-6.379-29.84-12.752-59.681-19.158-89.515
		c-0.628-2.925-0.947-6.104-2.385-8.605c-1.067-1.855-3.575-3.601-5.691-3.972c-3.418-0.599-5.936,2.025-6.218,5.139
		c-0.537,5.927-0.947,12.017-0.193,17.883c4.247,33.028,15.18,64.173,27.638,94.828C422.3,914.268,425.186,918.361,427.586,922.652z
		 M730.9,821.376c0.504-1.342,1.32-2.652,1.459-4.031c0.853-8.44,1.421-16.91,2.326-25.344c2.674-24.901,2.881-49.873,1.441-74.817
		c-0.392-6.784-3.196-13.483-5.312-20.087c-0.962-3.002-3.516-4.787-6.99-4.444c-2.593,0.256-3.639,3.236-2.625,7.397
		c0.118,0.485,0.271,0.962,0.424,1.438c6.019,18.751,8.164,38.054,7.785,57.642c-0.271,13.985-1.106,27.957-1.547,41.94
		C727.65,807.829,726.696,814.669,730.9,821.376z M609.798,593.779c-2.526-1.305-3.7-2.384-4.956-2.489
		c-17.668-1.487-33.89-7.225-49.071-16.223c-2.108-1.25-4.468-2.194-6.828-2.873c-4.338-1.249-8.424,0.342-10.388,3.711
		c-1.911,3.277-1.43,8.091,2.312,10.672c4.393,3.03,9.319,6.172,14.417,7.133c16.135,3.042,32.519,4.133,48.957,2.967
		C605.814,596.565,607.294,595.129,609.798,593.779z M510.237,559.565c-0.852-1.462-1.152-2.795-1.838-3.036
		c-15.632-5.501-31.189-3.396-46.481,1.284c-2.879,0.881-5.305,4.219-7.245,6.922c-2.106,2.932,0.551,7.504,4.138,7.619
		c1.942,0.062,3.948-0.104,5.839-0.541c12.535-2.896,25.068-5.812,37.552-8.921C504.954,562.206,507.506,560.72,510.237,559.565z
		 M702.932,1053.738c-15.434,0.824-27.295,1.447-39.154,2.113c-0.98,0.055-1.975,0.322-2.909,0.645
		c-3.041,1.053-5.023,3.108-5.644,6.33c-0.671,3.481,1.111,6.975,4.409,8.667c3.261,1.673,6.679,2.179,10.099,0.719
		c8.239-3.514,16.509-6.98,24.577-10.859C696.726,1060.19,698.513,1057.721,702.932,1053.738z M394.644,920.231
		c0.308-6.802-4.833-12.609-11.577-13.073c-7.289-0.502-13.859,5.5-13.73,12.542c0.118,6.464,5.96,12.282,12.467,12.414
		C388.544,932.251,394.342,926.885,394.644,920.231z M406.398,723.849c-7.045,3.116-9.131,8.231-9.592,13.676
		c-0.405,4.777,0.104,9.8,1.199,14.483c0.887,3.795,5.636,5.859,9.578,5.21c3.779-0.622,6.505-2.871,7.242-6.515
		C416.878,740.541,415.767,731.199,406.398,723.849z M794.797,850.768c0.788-0.513,1.981-0.843,2.305-1.564
		c5.466-12.163,6.541-24.924,4.719-37.984c-0.414-2.967-4.166-5.976-6.416-5.037c-2.081,0.868-4.479,2.611-5.307,4.572
		C785.901,820.701,788.32,839.456,794.797,850.768z M419.845,974.451c-0.153-6.863-5.718-12.156-12.638-12.017
		c-6.295,0.126-11.281,5.096-11.481,11.443c-0.216,6.861,5.09,12.617,11.848,12.852
		C414.313,986.964,419.997,981.276,419.845,974.451z M494.801,1045.881c0.095-6.24-4.919-11.547-11.049-11.695
		c-6.913-0.166-12.655,5.451-12.316,12.048c0.315,6.119,5.616,10.99,11.877,10.912
		C489.635,1057.068,494.706,1052.095,494.801,1045.881z M455.871,989.316c5.579,0.314,10.312-4.035,10.727-9.858
		c0.457-6.417-3.822-11.743-9.947-12.382c-6.207-0.647-11.363,4.07-11.516,10.536C444.986,983.923,449.608,988.963,455.871,989.316z
		 M861.282,848.656c-5.3,0.215-9.514,4.433-9.551,9.56c-0.041,5.685,5.061,10.204,10.887,9.646
		c5.094-0.488,9.084-5.176,8.743-10.273C871.017,852.436,866.513,848.444,861.282,848.656z M829.088,953.571
		c5.159-0.248,9.392-4.68,9.376-9.818c-0.018-5.695-5.336-10.379-10.956-9.65c-5.091,0.66-9.034,5.472-8.589,10.484
		C819.369,949.673,824.055,953.813,829.088,953.571z M644.498,1095.944c-4.867-0.161-9.516,4.132-9.81,9.058
		c-0.299,5.01,3.847,9.382,9.064,9.556c5.207,0.173,9.492-3.736,9.787-8.928C653.819,1100.7,649.535,1096.11,644.498,1095.944z
		 M848.76,736.591c-0.117-4.52-4.297-8.227-8.941-7.931c-4.722,0.3-8.115,4.354-7.604,9.086c0.441,4.09,3.844,7.158,8.021,7.232
		C844.803,745.059,848.876,741.052,848.76,736.591z M759.313,1008.395c-0.198-3.94-3.752-7.321-7.813-7.43
		c-4.002-0.108-7.604,3.284-7.802,7.347c-0.22,4.505,4.082,8.649,8.528,8.216C756.189,1016.142,759.51,1012.331,759.313,1008.395z
		 M853.98,896.601c0.166-4.984-3.238-8.893-7.814-8.975c-3.923-0.07-7.254,3.235-7.618,7.558c-0.406,4.825,3.025,8.684,7.84,8.818
		C850.564,904.118,853.836,900.928,853.98,896.601z M840.817,707.806c0.094-3.448-2.884-6.689-6.416-6.982
		c-4.071-0.337-7.799,3.375-7.444,7.413c0.31,3.527,3.513,6.313,7.132,6.203C837.7,714.33,840.72,711.352,840.817,707.806z
		 M857.296,717.803c3.18,0.369,6.072-1.89,6.34-4.95c0.27-3.093-2.032-5.947-5.105-6.33c-2.96-0.369-5.989,2.041-6.333,5.039
		C851.849,714.593,854.176,717.441,857.296,717.803z M720.208,1024.763c-3.305-0.046-6.432,3.413-6.083,6.729
		c0.297,2.818,3.132,5.418,5.913,5.422c2.712,0.004,5.743-2.611,6.103-5.266C726.578,1028.428,723.459,1024.809,720.208,1024.763z
		 M440.454,1023.745c0.365-3.122-1.748-6.049-4.726-6.547c-3.07-0.513-5.854,1.603-6.332,4.814
		c-0.488,3.275,1.435,5.942,4.646,6.443C437.206,1028.947,440.093,1026.828,440.454,1023.745z M627.855,1092.115
		c-0.572-4.331-3.554-6.355-6.733-5.862c-3.133,0.486-5.2,3.328-4.651,6.395c0.524,2.93,3.969,5.702,6.441,4.425
		C625.137,1095.923,626.648,1093.387,627.855,1092.115z M625.401,584.931c-2.176,2.951-4.173,4.58-4.485,6.484
		c-0.191,1.164,1.957,3.287,3.508,4.02c2.138,1.01,5.667-1.427,5.257-3.706C629.324,589.746,627.446,588.036,625.401,584.931z
		 M729.371,851.462c-1.818,3.079-3.778,4.937-3.833,6.851c-0.075,2.602,2.23,4.285,5.021,3.935c2.79-0.351,4.585-2.495,3.864-5.059
		C733.903,855.341,731.686,853.971,729.371,851.462z M841.94,771.918c2.151-2.536,4.222-3.978,4.765-5.859
		c0.766-2.655-1.386-4.483-3.824-5.15c-2.688-0.736-6.221,2.353-5.47,5.002C837.951,767.813,839.897,769.315,841.94,771.918z
		 M790.391,885.994c1.838-2.33,3.738-3.688,3.68-4.957c-0.059-1.311-2.03-3.546-3.149-3.536c-1.312,0.011-3.394,1.844-3.673,3.19
		C787.006,881.87,788.797,883.47,790.391,885.994z"/>
	<path fill="#432015" d="M746.672,1131.425c5.416-5.861,10.536-12.031,16.295-17.534c38.992-37.257,71.172-79.797,98.762-125.992
		c8.249-13.811,15.19-28.112,20.005-43.471c11.382-36.305,21.2-72.99,27.285-110.596c0.639-3.946,1.17-7.931,1.405-11.918
		c4.2-71.44-3.853-140.792-34.257-206.573c-11.806-25.543-30.367-44.406-54.232-58.39c-25.866-15.157-53.978-23.465-83.792-26.338
		c-12.57-1.212-24.988-0.539-37.351,1.723c-25.327,4.634-49.246,13.101-71.459,26.255c-5.589,3.309-11.302,6.445-17.14,9.288
		c-7.555,3.679-14.426,2.972-20.241-3.803c-3.892-4.534-8.159-8.746-12.252-13.092c2.669-17.208,5.064-34.473,8.046-51.636
		c8.644-49.742,22.833-97.928,41.349-144.865c2.558-6.485,5.398-12.864,7.815-19.399c0.814-2.199,0.722-4.733,1.044-7.116
		c0.887-0.487,1.776-0.973,2.664-1.459c5.688-1.72,11.281-0.71,16.931,0.369c1.939,0.371,3.794-0.338,2.392-3.072
		c-4.014-5.67-7.635-11.673-12.114-16.949c-13.606-16.026-27.523-31.789-41.368-47.611c-2.594-2.964-5.414-5.73-7.855-8.299
		c-2.689-0.159-4.68-0.311-6.672-0.389c-24.745-0.98-48.568-6.112-71.291-16.021c-3.628-1.582-7.101-3.606-10.402-5.794
		c-0.998-0.661-1.992-3.019-1.555-3.793c0.819-1.452,2.839-3.417,4.085-3.241c6.868,0.974,13.705,2.315,20.456,3.934
		c14.082,3.378,28.072,7.14,42.172,10.431c3.054,0.713,6.417,0.104,11.206,0.104c-2.191-3.104-3.464-5.137-4.962-6.99
		c-9.755-12.067-19.798-23.912-29.244-36.216c-4.538-5.911-9.787-9.352-17.149-10.864c-11.245-2.31-22.294-5.593-33.394-8.581
		c-5.392-1.451-10.404-3.764-13.852-8.386c-0.763-1.023-1.239-2.926-0.797-3.986c0.412-0.987,2.189-1.837,3.428-1.932
		c1.387-0.107,2.823,0.81,4.274,1.095c11.089,2.179,22.188,4.314,35.572,6.905c-3.796-5.144-5.935-8.445-8.471-11.406
		c-10.094-11.786-20.577-23.248-30.382-35.267c-5.656-6.933-10.344-14.663-15.348-22.114c-1.484-2.209-1.688-4.601,1.209-7.119
		c6.748,2.941,12.168,8.05,17.276,13.41c28.659,30.073,58.407,59.128,85.215,90.939c2.529,3.001,5.533,5.603,8.316,8.391
		c0.705,1.093,1.411,2.187,2.116,3.281c0.347-1.417,0.754-2.825,0.994-4.26c0.052-0.309-0.498-0.719-0.77-1.082
		c-1.248-11.581-6.386-21.948-10.152-32.75c-1.577-4.524-4.451-8.89-3.339-13.851c4.548-1.718,5.907,1.375,7.545,3.685
		c11.089,15.638,18.004,33.312,24.424,51.158c2.858,7.947,5.436,16.14,6.753,24.442c0.826,5.206,2.448,9.325,5.618,13.39
		c16.878,21.64,33.552,43.437,50.357,65.134c0.744,0.961,2.079,1.465,4.304,2.97c0.786-12.055,1.577-22.706-1.102-33.428
		c-2.305-9.225-3.88-18.588-0.732-28.011c4.708-0.979,5.581-5.404,7.495-8.696c14.599-25.101,29.818-49.795,47.092-73.171
		c8.05-10.893,16.458-21.494,27.423-29.643c3.977-2.955,8.254-5.801,12.827-7.594c8.179-3.207,15.394,1.032,16.401,9.838
		c0.548,4.79,0.101,10.173-1.6,14.64c-3.366,8.839-7.225,17.647-12.125,25.712c-8.827,14.527-18.343,28.654-27.976,42.669
		c-29.045,42.254-52.11,87.68-71.99,134.806c-1.106,2.621-1.099,5.711-1.607,8.58c-4.501,2.004-8.922,4.23-13.528,5.965
		c-6.529,2.46-13.537,3.855-18.865,8.814c-1.776,1.652-3.736,3.401-1.826,7.352c7.61,1.725,16.089,1.549,24.411,2.087
		c19.467,1.257,38.965,2.049,58.452,3c3.502,0.171,6.514-0.365,9.736-2.619c16.571-11.591,35.474-18.035,54.745-23.442
		c1.43-0.402,3.287,0.718,7.61,1.792c-6.941,4.019-11.481,6.767-16.135,9.308c-4.385,2.394-8.946,4.468-13.326,6.87
		c-4.539,2.49-9.956,3.852-14.262,9.92c4.618,0.239,7.446,0.517,10.274,0.512c26.522-0.044,53.046-0.327,79.566-0.099
		c7.943,0.068,15.927,1.214,23.779,2.532c2.425,0.407,4.478,3.021,7.577,5.257c-3.162,1.96-5.066,3.976-7.247,4.342
		c-7.859,1.32-15.797,2.744-23.732,2.918c-16.004,0.352-32.025-0.118-48.039-0.182c-3.282-0.013-6.565,0.264-11.112,0.463
		c1.947,5.593,4.984,8.893,7.133,12.662c2.465,4.323,4.804,8.737,6.828,13.276c0.408,0.915-0.485,3.084-1.428,3.736
		c-0.931,0.644-3.235,0.691-3.995-0.014c-10.573-9.808-20.983-19.791-32.854-31.083c-16.232-0.951-34.149-2.022-52.073-2.976
		c-0.742-0.039-1.541,1.01-3.19,2.167c1.489,5.352,4.069,10.566,6.742,15.832c2.577,5.078,6.039,10.015,5.906,16.573
		c-2.318,0.122-4.063,0.777-5.067,0.183c-14.256-8.445-20.984-23.668-32.107-36.419c-8.015,0-16.522,0.291-25-0.081
		c-8.759-0.384-17.49-1.414-26.841-2.214c0.938,9.729,6.62,15.265,12.646,20.566c3.693,3.249,8.757,5.151,10.246,10.538
		c-1.634,3.015-3.818,5.859-4.815,9.072c-9.212,29.666-16.695,59.766-21.975,90.39c-0.489,2.838-0.462,5.765-0.624,7.97
		c3.106,3.02,5.327,1.807,7.478,0.581c1.737-0.991,3.407-2.106,5.076-3.212c38.854-25.752,81.385-31.927,126.559-23.549
		c9.834,1.824,19.495,4.565,29.306,6.533c26.426,5.298,48.379,18.86,67.54,37.096c28.914,27.519,48.274,60.944,60.099,98.992
		c12.563,40.42,14.095,81.723,10.193,123.382c-2.897,30.921-8.371,61.465-16.022,91.611c-6.673,26.29-15.507,51.728-27.766,75.976
		c-9.702,19.19-18.439,38.89-28.7,57.768c-15.599,28.699-34.326,55.214-58.159,77.904c-7.233,6.886-13.401,14.878-20.487,21.931
		C765.185,1119.611,757.164,1127.224,746.672,1131.425z M712.294,230.633c3.88-2.164,6.899-3.019,8.709-4.987
		c15.23-16.559,28.862-34.294,38.329-54.874c1.123-2.441,1.286-5.324,2.044-8.663c-11.418,3.983-13.025,4.838-18.847,10.435
		c-13.584,13.058-22.084,29.373-29.203,46.462C712.098,221.953,712.675,225.653,712.294,230.633z M598.879,525.922
		c2.916-3.669,4.624-4.899,5.019-6.462c2.674-10.573,5.119-21.206,7.547-31.841c3.424-14.996,6.826-29.997,10.117-45.023
		c1.064-4.857,0.892-4.895-1.518-12.516c-1.159,1.043-2.732,1.766-3.075,2.87C607.836,462.328,603.344,492.591,598.879,525.922z
		 M640.02,363.324c0.942,0.889,1.834,2.176,2.228,2.038c7.687-2.688,14.125-12.487,12.885-19.358
		c-0.392-2.171-4.334-3.76-6.032-2.263c-1.429,1.26-3.007,2.697-3.692,4.39C643.376,353.157,641.751,358.348,640.02,363.324z
		 M696.649,254.046c-1.263,1.521-2.615,2.433-2.631,3.368c-0.017,0.979,1.25,1.98,1.956,2.971c1.009-0.742,2.692-1.368,2.845-2.256
		C698.985,257.158,697.734,255.945,696.649,254.046z"/>
	<path fill="#F4F0EA" d="M640.617,326.508c-0.888,0.486-1.777,0.972-2.664,1.459c-4.842-1.049-9.638-2.495-14.537-3.085
		c-32.081-3.86-60.927-15.833-86.881-34.78c-21.096-15.401-39.944-33.176-56.71-53.344c-22.703-27.311-36.504-58.578-42.492-93.177
		c-3.49-20.168-4.902-40.702-7.036-61.093c-0.957-9.142,0.662-17.876,5.054-26.125c2.124-3.989,5.132-6.057,9.452-6.227
		c2.989-0.118,6.133-0.363,8.966,0.375c9.772,2.545,19.856,2.353,29.686,3.855c10.3,1.573,20.78,4.17,30.273,8.372
		c20.113,8.903,40.529,17.68,59.229,29.111c51.366,31.399,83.163,77.018,94.109,136.594c1.265,6.886,2.07,13.857,3.115,20.784
		c0.385,2.554,1.18,4.847,4.128,5.502c-3.148,9.426-1.574,18.789,0.731,28.014c2.679,10.721,1.888,21.372,1.102,33.428
		c-2.225-1.505-3.56-2.009-4.304-2.97c-16.805-21.696-33.48-43.494-50.357-65.134c-3.17-4.065-4.792-8.184-5.618-13.39
		c-1.318-8.301-3.895-16.495-6.753-24.442c-6.42-17.847-13.335-35.52-24.424-51.158c-1.638-2.31-2.996-5.402-7.545-3.685
		c-1.112,4.961,1.762,9.327,3.339,13.851c3.766,10.803,8.904,21.169,10.152,32.75c-0.78,0.687-1.56,1.374-2.339,2.062
		c-2.783-2.787-5.786-5.39-8.316-8.391c-26.808-31.81-56.555-60.866-85.215-90.939c-5.108-5.36-10.528-10.47-17.276-13.41
		c-2.897,2.519-2.693,4.91-1.209,7.119c5.004,7.451,9.692,15.181,15.348,22.114c9.804,12.018,20.288,23.481,30.382,35.267
		c2.536,2.961,4.674,6.262,8.471,11.406c-13.384-2.591-24.482-4.725-35.572-6.905c-1.451-0.285-2.888-1.202-4.274-1.095
		c-1.239,0.096-3.016,0.945-3.428,1.932c-0.442,1.06,0.034,2.964,0.797,3.986c3.449,4.622,8.46,6.935,13.852,8.386
		c11.1,2.987,22.149,6.271,33.394,8.581c7.362,1.512,12.61,4.953,17.149,10.864c9.446,12.303,19.489,24.148,29.244,36.216
		c1.497,1.853,2.771,3.886,4.962,6.99c-4.789,0-8.152,0.609-11.206-0.104c-14.101-3.29-28.091-7.053-42.172-10.431
		c-6.751-1.619-13.588-2.96-20.456-3.934c-1.246-0.177-3.266,1.789-4.085,3.241c-0.436,0.774,0.557,3.131,1.555,3.793
		c3.301,2.187,6.775,4.212,10.402,5.794c22.723,9.91,46.546,15.042,71.291,16.021c1.993,0.079,3.983,0.23,6.672,0.389
		c2.441,2.568,5.262,5.334,7.855,8.299c13.845,15.822,27.762,31.585,41.368,47.611c4.479,5.276,8.1,11.279,12.105,16.942
		c-3.406-0.283-6.8-0.624-10.203-0.819C646.187,322.777,642.875,323.325,640.617,326.508z M594.887,299.288
		c0.668-1.798,0.157-2.898-1.846-3.115c-0.876-0.986-1.84-1.918-2.523-3.024c-0.091-0.147,1.295-1.75,1.905-1.693
		c2.445,0.23,4.836,0.999,7.28,1.278c2.113,0.241,3.879-0.396,3.845-3.697c-10.557-7.046-22.743-11.284-34.851-15.615
		c-5.585-1.998-11.353-3.531-17.123-4.926c-0.988-0.239-2.944,1.009-3.46,2.059c-0.494,1.004-0.162,3.401,0.613,3.879
		c4.6,2.836,9.24,5.784,14.238,7.751c6.368,2.506,13.089,4.113,20.2,6.272c-1.756,1.98-3.114,3.414-4.362,4.938
		c-2.511,3.064-2.75,6.371-0.471,9.602c2.785,3.949,7.652,5.297,11.874,3.32C593.106,304.96,594.806,302.615,594.887,299.288z
		 M468.387,134.681c2.239-3.127,4.649-5.113,5.055-7.448c0.402-2.308-1.826-4.375-4.677-4.553c-2.924-0.182-6.133,2.909-5.25,5.562
		C464.179,130.241,466.135,131.81,468.387,134.681z M474.254,163.119c-3.013-1.816-4.86-3.821-6.693-3.809
		c-2.294,0.014-4.465,1.915-4.071,4.859c0.374,2.792,2.418,4.482,4.996,3.739C470.315,167.381,471.703,165.327,474.254,163.119z"/>
	<path fill="#F4F0EA" d="M645.273,439.411c-1.489-5.387-6.554-7.289-10.246-10.538c-6.026-5.301-11.708-10.837-12.646-20.566
		c9.35,0.799,18.081,1.829,26.841,2.214c8.478,0.372,16.985,0.081,25,0.081c11.123,12.751,17.85,27.975,32.107,36.419
		c1.004,0.595,2.749-0.061,5.067-0.183c0.133-6.559-3.33-11.496-5.906-16.573c-2.673-5.266-5.254-10.48-6.742-15.832
		c1.649-1.157,2.448-2.206,3.19-2.167c17.924,0.955,35.842,2.025,52.073,2.976c11.871,11.292,22.281,21.274,32.854,31.083
		c0.76,0.705,3.064,0.658,3.995,0.014c0.943-0.652,1.837-2.821,1.428-3.736c-2.024-4.54-4.364-8.953-6.828-13.276
		c-2.149-3.769-5.186-7.068-7.133-12.662c4.547-0.199,7.83-0.476,11.112-0.463c16.014,0.064,32.035,0.534,48.039,0.182
		c7.935-0.175,15.873-1.599,23.732-2.918c2.181-0.366,4.085-2.382,7.247-4.342c-3.099-2.236-5.153-4.85-7.577-5.257
		c-7.853-1.319-15.836-2.464-23.779-2.532c-26.52-0.228-53.043,0.054-79.566,0.099c-2.828,0.005-5.656-0.273-10.274-0.512
		c4.306-6.068,9.724-7.43,14.262-9.92c4.38-2.403,8.941-4.476,13.326-6.87c4.654-2.541,9.195-5.289,16.135-9.308
		c-4.322-1.074-6.18-2.193-7.61-1.792c-19.271,5.407-38.174,11.851-54.745,23.442c-3.222,2.254-6.234,2.79-9.736,2.619
		c-19.487-0.951-38.984-1.743-58.452-3c-8.322-0.538-16.801-0.362-24.411-2.087c-1.91-3.951,0.05-5.7,1.826-7.352
		c5.328-4.958,12.336-6.354,18.865-8.814c4.606-1.735,9.027-3.961,13.528-5.965c6.185,1.987,11.823-0.767,17.531-2.236
		c32.686-8.418,65.819-12.499,99.495-9.081c25.845,2.623,51.553,6.472,76.774,12.998c7.739,2.003,15.661,3.442,23.208,5.998
		c8.477,2.871,17.039,5.968,24.827,10.294c14.403,8.001,16.114,21.235,4.732,33.487c-4.389,4.724-9.241,9.306-14.656,12.727
		c-9.261,5.85-18.698,11.844-28.831,15.812c-28.089,10.996-57.281,17.237-87.61,18.136c-46.387,1.374-90.319-8.11-132.039-28.297
		C651.108,440.466,648.085,440.156,645.273,439.411z M823.976,431.422c-4.535-0.201-8.71,3.252-9.217,7.623
		c-0.488,4.212,3.231,8.665,7.697,9.214c5.023,0.618,9.859-3.518,9.906-8.473C832.406,435.247,828.785,431.636,823.976,431.422z
		 M859.108,424.091c-3.605,0.233-6.345,3.469-5.921,6.992c0.418,3.471,4.014,6.222,7.352,5.622c2.638-0.474,5.276-3.604,5.317-6.307
		C865.906,427.05,862.505,423.871,859.108,424.091z"/>
	<path fill="#432015" d="M351.154,561.447c-2.515,4.309-4.737,8.824-7.598,12.89c-11.32,16.089-19.334,33.783-26.22,52.105
		c-18.551,49.361-26.917,100.355-24.021,153c1.152,20.939,2.937,41.919,5.929,62.665c5.718,39.657,21.604,75.92,40.898,110.547
		c15.808,28.37,32.925,56.024,52.464,82.111c17.205,22.971,36.604,43.624,59.621,60.87c20.809,15.592,41.125,31.873,64.445,43.767
		c14.579,7.436,29.407,8.673,44.752,2.455c5.989-2.426,12.153-4.419,18.239-6.608c-10.118,9.475-23.205,11.742-35.99,13.466
		c-31.176,4.203-60.867-2.13-88.895-15.816c-7.527-3.675-14.726-8.849-20.703-14.729c-29.278-28.806-57.793-58.199-78.945-94.004
		c-38.892-65.835-66.466-135.479-76.1-211.846c-3.647-28.908-6.42-57.748-4.298-86.818c4.008-54.897,21.499-104.653,57.696-146.976
		C337.948,572.073,343.335,565.41,351.154,561.447z"/>
	<path fill="#F4F0EA" d="M391.518,600.34c0.838,7.213-1.715,12.135-4.356,16.914c-17.621,31.87-23.622,66.463-24.771,102.361
		c-0.947,29.573,2.757,58.827,5.114,88.173c1.159,14.428,3.399,28.77,4.549,43.199c0.549,6.887,0.103,13.935-0.74,20.806
		c-0.304,2.477-2.607,5.694-4.849,6.727c-3.763,1.734-6.816-1.415-8.497-4.385c-2.926-5.17-5.874-10.55-7.443-16.22
		c-3.592-12.983-6.866-26.099-9.353-39.333c-5.458-29.05-7.646-58.413-6.579-87.974c1.014-28.105,5.415-55.707,14.36-82.37
		c3.626-10.809,8.667-21.264,14.163-31.278c3.025-5.512,7.924-10.237,12.733-14.457C380.015,598.847,385.329,597.068,391.518,600.34
		z"/>
	<path fill="#432015" d="M669.309,1106.714c-2.058-4.075-0.158-6.326,2.65-7.881c7.429-4.113,15.038-7.9,22.438-12.063
		c17.458-9.821,34.194-20.653,48.702-34.664c11.988-11.578,21.273-25.088,29.583-39.421c7.013-12.096,14.165-24.135,21.862-35.8
		c3.23-4.895,7.756-9.063,12.207-12.977c2.509-2.206,6.019-3.963,9.656-1.879c4.136,2.37,4.445,6.488,3.854,10.533
		c-0.499,3.42-1.393,6.871-2.713,10.06c-1.713,4.136-3.821,8.144-6.105,12.003c-15.626,26.396-34.53,50.167-57.05,71.052
		c-11.833,10.974-25.327,19.479-39.499,26.971c-7.505,3.967-15.111,7.794-22.897,11.161
		C684.698,1106.965,677.128,1109.706,669.309,1106.714z"/>
	<path fill="#432015" d="M763.975,723.909c5.24,1.074,5.959,4.753,6.103,8.188c0.376,8.987,0.622,18.001,0.377,26.989
		c-1.176,43.116-6.4,85.745-16.392,127.721c-1.806,7.588-2.766,15.651-8.179,23.622c-1.503-2.18-3.272-3.557-3.224-4.868
		c0.33-8.976,0.546-18.004,1.722-26.892c3.475-26.264,7.86-52.414,10.955-78.718c2.276-19.338,3.097-38.848,4.528-58.283
		c0.293-3.985,0.046-8.051,0.762-11.949C761.023,727.567,762.901,725.688,763.975,723.909z"/>
	<path fill="#432015" d="M829.37,623.682c-2.306,1.904-1.946,4.325-1.33,6.804c3.692,14.859,0.777,29.859,0.879,44.793
		c0.01,1.401-0.593,3.012-1.425,4.151c-0.743,1.017-2.122,1.805-3.366,2.124c-0.658,0.168-2.075-0.695-2.373-1.414
		c-0.947-2.283-1.583-4.702-2.243-7.095c-6.109-22.131-12.2-44.266-18.292-66.401c-3.22-11.701-8.114-22.547-16.109-31.841
		c-1.3-1.511-2.451-3.163-3.553-4.827c-3.103-4.686-3.33-7.57-0.853-9.248c3.706-2.511,6.709-0.297,9.58,1.603
		c7.241,4.793,12.6,11.439,16.889,18.82c4.26,7.332,7.797,15.08,11.869,22.527c1.091,1.996,2.979,3.558,4.5,5.319l-0.119-0.258
		c-1.044,4.569-0.556,5.527,3.197,6.277l-0.135-0.308c-2.433,4.672-1.589,7.177,3.147,9.344L829.37,623.682z"/>
	<path fill="#F4F0EA" d="M427.586,922.652c-2.4-4.291-5.286-8.384-7.123-12.904c-12.458-30.655-23.392-61.8-27.638-94.828
		c-0.754-5.866-0.344-11.956,0.193-17.883c0.282-3.114,2.8-5.738,6.218-5.139c2.116,0.371,4.624,2.117,5.691,3.972
		c1.438,2.501,1.757,5.68,2.385,8.605c6.406,29.834,12.779,59.675,19.158,89.515c1.464,6.847,3.031,13.675,4.306,20.557
		c0.419,2.26,0.066,4.661,0.066,6.998C429.757,921.914,428.672,922.283,427.586,922.652z"/>
	<path fill="#432015" d="M823.541,608.997c2.048-1.051,2.688-2.77,2.09-4.886c-1.353-4.781-3.22-9.469-3.999-14.335
		c-0.302-1.888,1.325-4.666,2.926-6.052c0.919-0.795,4.212-0.274,5.295,0.802c4.182,4.158,8.674,8.319,11.651,13.313
		c8.286,13.894,12.352,29.375,13.773,45.339c0.878,9.864,0.262,19.888-0.132,29.823c-0.124,3.14-1.699,6.222-2.592,9.268
		c-4.076-0.766-4.126-3.524-4.831-5.811c-5.123-16.608-10.203-33.229-15.442-49.8c-0.373-1.18-1.914-1.992-2.912-2.975
		c0,0,0.262,0.371,0.262,0.371c1.054-3.823,1.237-7.352-3.147-9.344c0,0,0.135,0.308,0.135,0.308
		c1.509-4.76,0.885-5.986-3.197-6.278L823.541,608.997z"/>
	<path fill="#432015" d="M730.9,821.376c-4.204-6.707-3.249-13.547-3.036-20.307c0.44-13.983,1.276-27.955,1.547-41.94
		c0.379-19.588-1.766-38.89-7.785-57.642c-0.153-0.476-0.306-0.953-0.424-1.438c-1.014-4.162,0.032-7.142,2.625-7.397
		c3.473-0.343,6.028,1.442,6.99,4.444c2.116,6.604,4.92,13.304,5.312,20.087c1.44,24.943,1.233,49.916-1.441,74.817
		c-0.906,8.434-1.474,16.904-2.326,25.344C732.22,818.723,731.403,820.034,730.9,821.376z"/>
	<path fill="#F4F0EA" d="M609.798,593.779c-2.504,1.349-3.984,2.786-5.559,2.898c-16.438,1.166-32.823,0.075-48.957-2.967
		c-5.097-0.961-10.024-4.103-14.417-7.133c-3.742-2.581-4.222-7.396-2.312-10.672c1.965-3.369,6.05-4.96,10.388-3.711
		c2.36,0.68,4.72,1.623,6.828,2.873c15.182,8.998,31.403,14.736,49.071,16.223C606.098,591.396,607.272,592.474,609.798,593.779z"/>
	<path fill="#F4F0EA" d="M510.237,559.565c-2.731,1.154-5.283,2.641-8.035,3.326c-12.484,3.109-25.016,6.025-37.552,8.921
		c-1.891,0.437-3.897,0.603-5.839,0.541c-3.587-0.114-6.244-4.686-4.138-7.619c1.941-2.703,4.366-6.041,7.245-6.922
		c15.292-4.679,30.849-6.785,46.481-1.284C509.085,556.771,509.386,558.103,510.237,559.565z"/>
	<path fill="#432015" d="M702.932,1053.738c-4.419,3.983-6.206,6.453-8.622,7.615c-8.068,3.88-16.338,7.345-24.577,10.859
		c-3.42,1.459-6.838,0.954-10.099-0.719c-3.298-1.692-5.08-5.186-4.409-8.667c0.621-3.222,2.603-5.276,5.644-6.33
		c0.934-0.323,1.929-0.589,2.909-0.645C675.637,1055.184,687.498,1054.562,702.932,1053.738z"/>
	<path fill="#F4F0EA" d="M394.644,920.231c-0.302,6.654-6.1,12.02-12.84,11.883c-6.507-0.132-12.349-5.949-12.467-12.414
		c-0.128-7.043,6.441-13.044,13.73-12.542C389.811,907.623,394.952,913.429,394.644,920.231z"/>
	<path fill="#F4F0EA" d="M406.398,723.849c9.369,7.35,10.479,16.692,8.426,26.854c-0.736,3.644-3.463,5.893-7.242,6.515
		c-3.941,0.649-8.691-1.415-9.578-5.21c-1.095-4.683-1.603-9.706-1.199-14.483C397.267,732.08,399.354,726.965,406.398,723.849z"/>
	<path fill="#432015" d="M794.797,850.767c-6.477-11.31-8.895-30.066-4.698-40.013c0.828-1.961,3.226-3.704,5.307-4.572
		c2.25-0.939,6.002,2.07,6.416,5.037c1.822,13.06,0.746,25.821-4.719,37.984C796.779,849.924,795.586,850.255,794.797,850.767z"/>
	<path fill="#F4F0EA" d="M419.845,974.451c0.152,6.825-5.532,12.513-12.271,12.278c-6.758-0.235-12.064-5.991-11.848-12.852
		c0.2-6.347,5.186-11.317,11.481-11.443C414.127,962.295,419.692,967.587,419.845,974.451z"/>
	<path fill="#F4F0EA" d="M494.801,1045.881c-0.095,6.214-5.165,11.187-11.488,11.265c-6.261,0.078-11.562-4.793-11.877-10.912
		c-0.339-6.597,5.403-12.214,12.316-12.048C489.882,1034.334,494.896,1039.641,494.801,1045.881z"/>
	<path fill="#F4F0EA" d="M455.871,989.316c-6.263-0.353-10.886-5.392-10.736-11.704c0.153-6.466,5.309-11.183,11.516-10.536
		c6.126,0.639,10.405,5.965,9.947,12.382C466.183,985.28,461.45,989.63,455.871,989.316z"/>
	<path fill="#432015" d="M861.282,848.656c5.231-0.212,9.735,3.78,10.08,8.933c0.341,5.097-3.649,9.785-8.743,10.273
		c-5.827,0.558-10.928-3.962-10.887-9.646C851.768,853.089,855.982,848.871,861.282,848.656z"/>
	<path fill="#432015" d="M829.088,953.571c-5.033,0.242-9.719-3.898-10.169-8.984c-0.444-5.011,3.498-9.823,8.589-10.484
		c5.62-0.729,10.938,3.954,10.956,9.65C838.48,948.891,834.247,953.323,829.088,953.571z"/>
	<path fill="#432015" d="M644.498,1095.944c5.037,0.166,9.321,4.756,9.041,9.686c-0.295,5.192-4.58,9.101-9.787,8.928
		c-5.216-0.173-9.363-4.545-9.064-9.556C634.982,1100.076,639.631,1095.783,644.498,1095.944z"/>
	<path fill="#432015" d="M848.76,736.591c0.116,4.461-3.957,8.469-8.524,8.387c-4.177-0.075-7.579-3.143-8.021-7.232
		c-0.51-4.732,2.882-8.785,7.604-9.086C844.464,728.364,848.643,732.071,848.76,736.591z"/>
	<path fill="#432015" d="M759.313,1008.395c0.197,3.936-3.123,7.748-7.086,8.133c-4.446,0.433-8.748-3.711-8.528-8.216
		c0.198-4.063,3.8-7.455,7.802-7.347C755.561,1001.074,759.115,1004.455,759.313,1008.395z"/>
	<path fill="#432015" d="M853.98,896.601c-0.144,4.327-3.416,7.517-7.592,7.401c-4.815-0.133-8.246-3.993-7.84-8.818
		c0.364-4.324,3.695-7.628,7.618-7.558C850.742,887.708,854.146,891.617,853.98,896.601z"/>
	<path fill="#432015" d="M840.817,707.806c-0.097,3.546-3.116,6.524-6.728,6.634c-3.619,0.11-6.822-2.675-7.132-6.203
		c-0.355-4.038,3.373-7.749,7.444-7.413C837.932,701.117,840.911,704.358,840.817,707.806z"/>
	<path fill="#432015" d="M857.296,717.803c-3.121-0.362-5.447-3.21-5.099-6.242c0.344-2.997,3.373-5.407,6.333-5.039
		c3.073,0.382,5.376,3.237,5.105,6.33C863.368,715.914,860.476,718.172,857.296,717.803z"/>
	<path fill="#432015" d="M720.208,1024.763c3.25,0.045,6.369,3.665,5.933,6.885c-0.36,2.654-3.391,5.269-6.103,5.266
		c-2.781-0.004-5.616-2.604-5.913-5.422C713.776,1028.176,716.903,1024.717,720.208,1024.763z"/>
	<path fill="#F4F0EA" d="M440.454,1023.745c-0.361,3.083-3.247,5.202-6.412,4.709c-3.21-0.501-5.134-3.168-4.646-6.443
		c0.479-3.211,3.262-5.327,6.332-4.814C438.706,1017.696,440.819,1020.623,440.454,1023.745z"/>
	<path fill="#432015" d="M627.855,1092.115c-1.207,1.272-2.717,3.807-4.944,4.958c-2.471,1.277-5.916-1.495-6.441-4.425
		c-0.549-3.067,1.518-5.909,4.651-6.395C624.301,1085.76,627.282,1087.785,627.855,1092.115z"/>
	<path fill="#F4F0EA" d="M625.401,584.931c2.045,3.105,3.923,4.814,4.28,6.798c0.41,2.279-3.119,4.716-5.257,3.706
		c-1.551-0.733-3.699-2.856-3.508-4.02C621.228,589.511,623.225,587.882,625.401,584.931z"/>
	<path fill="#432015" d="M729.371,851.462c2.314,2.509,4.532,3.879,5.051,5.726c0.721,2.564-1.074,4.708-3.864,5.059
		c-2.79,0.351-5.095-1.332-5.021-3.935C725.593,856.399,727.553,854.541,729.371,851.462z"/>
	<path fill="#432015" d="M841.94,771.918c-2.043-2.603-3.989-4.106-4.529-6.006c-0.752-2.649,2.782-5.738,5.47-5.002
		c2.438,0.667,4.59,2.495,3.824,5.15C846.162,767.941,844.091,769.382,841.94,771.918z"/>
	<path fill="#432015" d="M790.391,885.994c-1.594-2.525-3.385-4.124-3.141-5.303c0.278-1.346,2.361-3.179,3.673-3.19
		c1.119-0.01,3.089,2.225,3.149,3.536C794.129,882.307,792.229,883.665,790.391,885.994z"/>
	<path fill="#F4F0EA" d="M712.294,230.633c0.381-4.98-0.196-8.68,1.032-11.627c7.119-17.09,15.619-33.405,29.203-46.462
		c5.822-5.597,7.429-6.451,18.847-10.435c-0.758,3.34-0.921,6.222-2.044,8.663c-9.468,20.581-23.099,38.315-38.329,54.874
		C719.193,227.614,716.174,228.469,712.294,230.633z"/>
	<path fill="#F4F0EA" d="M598.879,525.922c4.465-33.33,8.957-63.593,18.089-92.971c0.343-1.104,1.916-1.827,3.075-2.87
		c2.41,7.621,2.583,7.658,1.518,12.516c-3.291,15.025-6.693,30.027-10.117,45.023c-2.428,10.634-4.872,21.268-7.547,31.841
		C603.503,521.023,601.795,522.253,598.879,525.922z"/>
	<path fill="#F4F0EA" d="M590.632,201.994c0.273,0.363,0.822,0.773,0.77,1.082c-0.24,1.435-0.647,2.843-0.994,4.26
		c-0.705-1.093-1.411-2.187-2.116-3.281C589.072,203.368,589.852,202.681,590.632,201.994z"/>
	<path fill="#432015" d="M594.887,299.288c-0.081,3.327-1.781,5.672-4.681,7.029c-4.223,1.978-9.09,0.629-11.874-3.32
		c-2.278-3.231-2.04-6.538,0.471-9.602c1.249-1.524,2.606-2.958,4.362-4.938c-7.111-2.159-13.832-3.766-20.2-6.272
		c-4.998-1.966-9.638-4.915-14.238-7.751c-0.775-0.478-1.107-2.875-0.613-3.879c0.516-1.049,2.472-2.298,3.46-2.059
		c5.769,1.395,11.537,2.928,17.123,4.926c12.108,4.331,24.294,8.568,34.851,15.615c0.033,3.301-1.733,3.938-3.845,3.697
		c-2.444-0.279-4.835-1.048-7.28-1.278c-0.609-0.057-1.996,1.545-1.905,1.693c0.683,1.105,1.647,2.037,2.518,3.022
		C593.65,297.21,594.268,298.249,594.887,299.288z"/>
	<path fill="#432015" d="M468.387,134.681c-2.251-2.87-4.207-4.44-4.872-6.439c-0.882-2.653,2.326-5.744,5.25-5.562
		c2.851,0.178,5.079,2.244,4.677,4.553C473.035,129.567,470.626,131.554,468.387,134.681z"/>
	<path fill="#432015" d="M474.254,163.119c-2.55,2.208-3.939,4.262-5.768,4.789c-2.578,0.743-4.622-0.948-4.996-3.739
		c-0.394-2.943,1.777-4.844,4.071-4.859C469.394,159.298,471.241,161.303,474.254,163.119z"/>
	<path fill="#432015" d="M823.976,431.422c4.809,0.213,8.43,3.825,8.387,8.364c-0.048,4.955-4.883,9.09-9.906,8.473
		c-4.466-0.549-8.185-5.002-7.697-9.214C815.266,434.675,819.442,431.221,823.976,431.422z"/>
	<path fill="#432015" d="M859.108,424.091c3.397-0.22,6.798,2.959,6.748,6.306c-0.041,2.704-2.679,5.833-5.317,6.307
		c-3.337,0.6-6.934-2.151-7.352-5.622C852.763,427.56,855.503,424.324,859.108,424.091z"/>
	<path fill="#39C6BC" d="M826.485,614.708c4.384,1.992,4.201,5.521,3.147,9.344C824.895,621.885,824.052,619.38,826.485,614.708z"/>
	<path fill="#39C6BC" d="M823.423,608.739c4.082,0.292,4.706,1.517,3.197,6.278C822.867,614.266,822.379,613.307,823.423,608.739z"
		/>
</g>
</svg>
